<svg xmlns="http://www.w3.org/2000/svg" xmlns:xlink="http://www.w3.org/1999/xlink" width="60" height="60" viewBox="0 0 60 60">
    <defs>
        <rect id="b" width="40" height="40" rx="20"/>
        <filter id="a" width="175%" height="175%" x="-37.5%" y="-37.5%" filterUnits="objectBoundingBox">
            <feOffset in="SourceAlpha" result="shadowOffsetOuter1"/>
            <feGaussianBlur in="shadowOffsetOuter1" result="shadowBlurOuter1" stdDeviation="5"/>
            <feColorMatrix in="shadowBlurOuter1" values="0 0 0 0 0 0 0 0 0 0 0 0 0 0 0 0 0 0 0.1 0"/>
        </filter>
    </defs>
    <g fill="none" fill-rule="evenodd">
        <g transform="translate(10 10)">
            <use fill="#000" filter="url(#a)" xlink:href="#b"/>
            <use fill="#FFF" xlink:href="#b"/>
        </g>
        <path fill="#F89D4F" stroke="#F89D4F" d="M27.778 35.499a1.76 1.76 0 0 0-.48 1.479 3.787 3.787 0 0 1-.916 3.021 3.785 3.785 0 0 1-2.618 1.285 3.792 3.792 0 0 1-2.034-.442l2.484-1.42a.815.815 0 0 0 .381-.934l-.324-1.135a.803.803 0 0 0-.263-.404l-1.02-.851a.814.814 0 0 0-.96-.064l-2.318 1.464a3.748 3.748 0 0 1 1.126-2.739 3.756 3.756 0 0 1 2.656-1.09c.167 0 .34.01.5.03a1.783 1.783 0 0 0 1.484-.49l4.857-4.86.597-.597 1.28-1.28c.381-.391.564-.948.487-1.484a3.825 3.825 0 0 1 .865-2.92 3.783 3.783 0 0 1 2.588-1.344 3.785 3.785 0 0 1 2.358.57l-2.353 1.348a.813.813 0 0 0-.38.935l.324 1.134c.045.16.136.3.262.405l1.02.85c.273.23.66.256.961.064l1.937-1.223a3.81 3.81 0 0 1-4.301 3.492 1.772 1.772 0 0 0-1.49.49l-6.71 6.71zm6.117-3.98l4.504 4.506a2.172 2.172 0 0 1 0 3.067 2.172 2.172 0 0 1-3.068-.001l-4.502-4.502a2.138 2.138 0 0 1-.452-.686l2.835-2.835c.252.107.484.255.683.452zM23.18 24.56a.324.324 0 0 0-.172-.09l-1.579-.307-1.236-3.03.347-.345 2.948 1.306.294 1.569a.34.34 0 0 0 .092.173L28.84 28.8l-.71.709-4.95-4.95zm12.701 4.443a4.522 4.522 0 0 0 5.101-4.864.356.356 0 0 0-.543-.271l-2.476 1.564a.107.107 0 0 1-.126-.008l-1.02-.852a.104.104 0 0 1-.035-.054l-.324-1.137a.108.108 0 0 1 .05-.122l2.827-1.62a.355.355 0 0 0 .052-.579 4.499 4.499 0 0 0-3.298-1.042 4.488 4.488 0 0 0-3.069 1.596 4.535 4.535 0 0 0-1.025 3.468c.046.326-.064.66-.29.893l-1.89 1.892c-.078.05-.15.107-.209.168l-.297.298-4.893-4.894-.307-1.64a.331.331 0 0 0-.192-.241l-3.316-1.47a.332.332 0 0 0-.369.069l-.664.664a.334.334 0 0 0-.072.36l1.387 3.398a.328.328 0 0 0 .243.2l1.656.323 4.88 4.878-.293.292a1.236 1.236 0 0 0-.175.216l-2.216 2.218a1.063 1.063 0 0 1-.89.29 4.822 4.822 0 0 0-.564-.035 4.47 4.47 0 0 0-3.185 1.293A4.46 4.46 0 0 0 19 37.42c-.002.248.017.498.057.745a.355.355 0 0 0 .54.244l2.811-1.775a.102.102 0 0 1 .125.009l1.021.852a.099.099 0 0 1 .035.052l.324 1.137a.11.11 0 0 1-.05.123l-2.995 1.71a.353.353 0 0 0-.036.592 4.503 4.503 0 0 0 2.978.883 4.489 4.489 0 0 0 3.104-1.524A4.484 4.484 0 0 0 28 36.878a1.049 1.049 0 0 1 .283-.88l1.594-1.594c.128.239.29.46.482.654l4.502 4.503a2.837 2.837 0 0 0 4.006 0 2.82 2.82 0 0 0 .828-2.003 2.82 2.82 0 0 0-.827-2.002l-4.505-4.505a2.8 2.8 0 0 0-.65-.484l1.273-1.274c.234-.23.565-.34.894-.291z"/>
    </g>
</svg>
