<svg xmlns="http://www.w3.org/2000/svg" xmlns:xlink="http://www.w3.org/1999/xlink" width="60" height="60" viewBox="0 0 60 60">
    <defs>
        <rect id="b" width="40" height="40" rx="20"/>
        <filter id="a" width="175%" height="175%" x="-37.5%" y="-37.5%" filterUnits="objectBoundingBox">
            <feOffset in="SourceAlpha" result="shadowOffsetOuter1"/>
            <feGaussianBlur in="shadowOffsetOuter1" result="shadowBlurOuter1" stdDeviation="5"/>
            <feColorMatrix in="shadowBlurOuter1" values="0 0 0 0 0 0 0 0 0 0 0 0 0 0 0 0 0 0 0.1 0"/>
        </filter>
    </defs>
    <g fill="none" fill-rule="evenodd">
        <g transform="translate(10 10)">
            <use fill="#000" filter="url(#a)" xlink:href="#b"/>
            <use fill="#FFF" xlink:href="#b"/>
        </g>
        <path fill="#20A15F" stroke="#20A15F" d="M21 36.462h3.333c.801 0 1.908.383 3.08.789 1.065.368 2.166.749 2.846.749h7.408c.612 0 1.11-.518 1.11-1.154 0-.636-.498-1.154-1.11-1.154a.377.377 0 0 1-.37-.384c0-.213.165-.385.37-.385h.74c.613 0 1.112-.518 1.112-1.154 0-.636-.499-1.154-1.112-1.154a.377.377 0 0 1-.37-.384c0-.213.166-.385.37-.385h.741c.613 0 1.111-.518 1.111-1.154 0-.636-.498-1.154-1.11-1.154a.377.377 0 0 1-.371-.384c0-.213.165-.385.37-.385h.74c.613 0 1.112-.517 1.112-1.154 0-.636-.499-1.153-1.111-1.153H31.74a.364.364 0 0 1-.29-.145.397.397 0 0 1-.072-.325c.49-2.24.735-4.54.732-6.838 0-.636-.498-1.154-1.111-1.154s-1.111.518-1.111 1.154a.39.39 0 0 1-.006.069 18.493 18.493 0 0 1-1.422 4.334c-1.4 2.906-3.34 4.443-5.61 4.443H21v8.462zM37.828 39H30.24c-.82 0-1.953-.391-3.154-.806-1.09-.377-2.217-.765-2.915-.765H20.38a.386.386 0 0 1-.379-.393v-9.429c0-.217.17-.393.38-.393h2.275c4.778 0 6.343-7.732 6.449-8.29C29.124 17.86 29.967 17 31 17c1.046 0 1.897.881 1.897 1.964a33.366 33.366 0 0 1-.667 6.679h7.873c1.046 0 1.897.881 1.897 1.964 0 .843-.515 1.563-1.236 1.842.297.346.477.802.477 1.301 0 .843-.514 1.563-1.235 1.841.296.347.477.803.477 1.302 0 .843-.515 1.563-1.236 1.841.297.347.477.803.477 1.302 0 1.083-.85 1.964-1.896 1.964z"/>
    </g>
</svg>
