<?xml version="1.0" encoding="utf-8"?>
<!-- Generator: Adobe Illustrator 18.0.0, SVG Export Plug-In . SVG Version: 6.00 Build 0)  -->
<!DOCTYPE svg PUBLIC "-//W3C//DTD SVG 1.1//EN" "http://www.w3.org/Graphics/SVG/1.1/DTD/svg11.dtd">
<svg version="1.1" id="Calque_1" xmlns="http://www.w3.org/2000/svg" xmlns:xlink="http://www.w3.org/1999/xlink" x="0px" y="0px"
	 width="65px" height="65px" viewBox="85 0 60 65" enable-background="new 0 0 146.8 64.1" xml:space="preserve">
<path fill="#0093D0" d="M86.8,2.8c0,0,12.4-2.8,28.2-2.8c15.8,0,28.5,2.8,28.5,2.8s3.3,13,3.3,28.9c0,15.7-3.4,29.6-3.4,29.6
	s-12.6,2.8-28.3,2.8c-15.9,0-28.4-2.8-28.4-2.8s-3.5-13.9-3.5-29.7C83.2,15.8,86.8,2.8,86.8,2.8 M111.3,4.7
	c-5.7-0.1-12.1,0.9-12.2,1.8c-0.2,1,1.5,3.3,1.5,3.3s-4.9,4-4.9,10.6c0,10,6.2,18,4.4,34.6h-9.6c0,0,2.6,2.9,13.4,4.2
	c0,0,1.1,0.2,1.7-0.1c0.5-0.3,2.7-5.3,2.7-15.1c0,0,0-0.5,0.2-0.6c0.3-0.1,0.8,0.1,0.8,0.1c1.8,0.8,5.9,2.2,8.2,3.9
	c3.9,2.8,3.4,3.8,3.7,7c0,3.3,0.1,3.3,0.4,3.2c0,0,6-12.6,2.2-14.6c-2.7-1.5-8.7-4.7-11-6c-1-0.5-2.6-1.5-3.1-2
	c-0.5-0.4-0.5-1.8-0.4-2.6c0,0-0.1-0.8,1.5-1.2c5.4-1.1,9.4-1.5,13.1-7.9c0,0-8.4,4.1-15,2.5c-0.3-0.1-0.6-0.3-0.5-0.6
	c0.1-0.3,0.5-0.2,0.5-0.2c1.7,0.2,3.9-0.5,4.8-1.9c1.2-1.8,1-4.3-1.1-6.2c-2.3-2-5.7-0.9-6.6,0.5c-0.9,1.3-1.5,1.5-2.4,5.8
	c0,0-4.4-2.3-2.1-10c0,0,0.1-0.8,0.6-0.8c0.5-0.1,0.6,0,0.7,0.2c0.9,1,2.2,3.5,2.8,3.9c0,0,2-1.8,4.3-1.7c2.3,0.1,6.2,1.5,5.8,7.1
	c0,0,0,0.5,0.7,0.5c1.2,0.1,4.5,0.5,7.3-2.3c0,0,0.6-0.4,0.7,0.2c0.2,1.4,0.5,1.7,0.5,1.7s0.5,0.8,1.8,0.8c0.2,0,0.1-0.1,0.1-0.1
	s-0.2-0.3-0.2-0.9c0-0.4,0.2-2.7,0.3-3.1c0-0.2,0.1-0.6,0.4-0.8c0.3-0.3,1.8-1.5,1.8-1.5s0.6-0.2,0.8-0.2c0.1,0,0.6-0.1,0.6-0.3
	c0-0.2-0.4-0.7-0.9-1s-1.2-0.8-1.7-0.4c-0.6,0.4-1.2,0.9-1.2,0.9s-0.2,0.2-0.4,0.1c-0.2,0-0.2,0-0.2-0.8c0-0.5-0.7-5.5-5.9-8.4
	C120.1,6.2,117.7,4.8,111.3,4.7z"/>
<path fill="#6CBCE3" d="M128.4,22.3c0,0-0.6,0.3-0.5,0.6c0.1,0.4,2.4,4.9,2.2,7.8c-0.2,2.8-3.4,13.3-3,17.8
	c0.3,4.5,0.1,5.5,3.1,11.9h3c0,0-3.9-7.1-3.4-12.8c0.5-7,2-12.7,2.1-15.6c0.1-2.9-0.6-5.4-3-9.3C128.8,22.6,128.6,22.3,128.4,22.3"
	/>
<path fill="#6CBCE3" d="M130.1,20.5c0,0,3,4,3.5,5c0.5,1.1,0.8,3.1,0.8,3.1c0.9,5,0,7.5-0.5,9.6c-0.5,2-1.7,7.9-1.7,11.9
	s1.4,7.8,2.2,8.9c0.8,1.1,0.3,1.2,0.3,1.2c-0.7,0-1.8-2.1-2.1-3c-0.3-0.9-1.9-5.6-2-6.5c-0.1-0.9,0.4-8.1,0.5-9.2
	c0.1-1.1,1.5-7.7,1.6-9.5c0.1-1.8-1.1-6.2-1.3-6.8c-0.2-0.5-1.9-3.1-2-3.3c-0.2-0.2-0.4-0.5-0.4-0.9c0-0.3,0.6-0.6,0.6-0.6
	S129.9,20.2,130.1,20.5"/>
<path fill="#6CBCE3" d="M130.5,18.5c0,0-0.3,0.2-0.2,0.6c0.2,0.5,2.3,3.3,2.6,3.8c0.3,0.5,1.8,2.3,2.2,3.4c0.4,1.1,0.8,4.1,0.7,5.1
	c-0.2,3-2.1,11.9-2.4,13.7c-0.3,1.7-0.6,5.8-0.4,6.6c0.2,0.9,2,7.5,2.9,8.5h3c0,0-3.4-6.5-3.5-9.5s0.6-8,0.9-9.4
	c0.3-1.4,1.7-7.5,1.3-10.9c-0.5-3.4-1.2-5.2-2.1-6.5c-0.9-1.3-4.5-5.4-4.5-5.4S130.8,18.3,130.5,18.5"/>
</svg>
