<svg xmlns="http://www.w3.org/2000/svg" width="40" height="40" viewBox="5 0 40 40">
    <defs>
        <filter id="a" width="110.7%" height="106%" x="-5.3%" y="-3%" filterUnits="objectBoundingBox">
            <feOffset in="SourceAlpha" result="shadowOffsetOuter1"/>
            <feGaussianBlur in="shadowOffsetOuter1" result="shadowBlurOuter1" stdDeviation="5"/>
            <feColorMatrix in="shadowBlurOuter1" result="shadowMatrixOuter1" values="0 0 0 0 0 0 0 0 0 0 0 0 0 0 0 0 0 0 0.1 0"/>
            <feMerge>
                <feMergeNode in="shadowMatrixOuter1"/>
                <feMergeNode in="SourceGraphic"/>
            </feMerge>
        </filter>
    </defs>
    <path fill="#E3A300" fill-rule="evenodd" d="M7.246 6.642L10.103.583a.98.98 0 0 1 1.794 0l2.857 6.059 6.39.977c.82.126 1.146 1.18.553 1.785l-4.623 4.713 1.09 6.657c.141.855-.716 1.507-1.45 1.103L11 18.732l-5.714 3.145c-.734.404-1.591-.248-1.45-1.103l1.09-6.657L.303 9.404C-.29 8.8.037 7.744.856 7.62l6.39-.977z" filter="url(#a)" transform="translate(9 9)"/>
</svg>
