<svg xmlns="http://www.w3.org/2000/svg" width="25" height="25" viewBox="0 0 25 25">
    <path fill="#1E272E" fill-rule="evenodd" d="M5.232 20.002a8.202 8.202 0 0 1 4.177-3.866c.432-.184.88-.327 1.34-.426 1.131.41 2.37.41 3.502 0 .471.093.932.231 1.376.412a8.197 8.197 0 0 1 4.164 3.861 10.409 10.409 0 0 1-14.536 0l-.023.019zm3.696-9.575a3.572 3.572 0 1 1 3.576 3.568H12.5a3.577 3.577 0 0 1-3.572-3.568zM12.5 2.04c5.776.001 10.459 4.685 10.457 10.462 0 2.082-.622 4.117-1.786 5.844a10.2 10.2 0 0 0-4.65-4.012 5.613 5.613 0 1 0-8.042 0 10.2 10.2 0 0 0-4.65 4.022A10.461 10.461 0 0 1 12.5 2.04zm0-2.04C5.596 0 0 5.596 0 12.5 0 19.403 5.596 25 12.5 25 19.403 25 25 19.403 25 12.5 24.992 5.6 19.4.008 12.5 0z"/>
</svg>
