<svg xmlns="http://www.w3.org/2000/svg" width="28" height="23" viewBox="0 0 28 23">
    <g fill="#1E272E" fill-rule="evenodd">
        <path d="M25.394 14.951c0 .4-.324.725-.723.725h-1.416V7.769a3.169 3.169 0 0 0-3.157-3.173H7.008V3.173c0-.4.324-.726.722-.726h16.941c.399 0 .723.326.723.726v11.778zm-4.574 4.597c0 .4-.324.724-.722.724H3.157a.724.724 0 0 1-.722-.724V7.769c0-.4.324-.726.722-.726h16.94c.399 0 .723.326.723.726v11.779zM24.67 0H7.731a3.168 3.168 0 0 0-3.157 3.173v1.423H3.157A3.168 3.168 0 0 0 0 7.77v11.779a3.167 3.167 0 0 0 3.157 3.17h16.94a3.168 3.168 0 0 0 3.158-3.17v-1.425h1.416a3.168 3.168 0 0 0 3.157-3.172V3.173A3.168 3.168 0 0 0 24.671 0z"/>
        <path d="M9.142 18.78l-4.673-3.908 1.557-1.88 3.116 2.605 7.105-6.352 1.557 1.882z"/>
    </g>
</svg>
