<svg xmlns="http://www.w3.org/2000/svg" width="21" height="26" viewBox="0 0 21 26">
    <path fill="#1E272E" fill-rule="evenodd" d="M18.17 22.923v.001c.014.326.057.652.128.971H3.066c-.581 0-1.036-.442-1.036-1.006 0-.564.455-1.006 1.036-1.006h15.232c-.07.32-.114.643-.128.966v.074zM2.03 3.26c0-.724.583-1.291 1.33-1.291h15.396v17.943H3.066c-.355 0-.697.066-1.036.202V3.261zm18.578 18.191a.824.824 0 0 0 .178-.51V1.056c0-.435-.328-.845-.762-.954a3.484 3.484 0 0 0-.84-.102H3.36C1.507 0 0 1.463 0 3.26v19.643c.01.313.08.545.134.73l.03.105a3.012 3.012 0 0 0 2.902 2.127h16.641c.269-.004.604-.007.906-.387.209-.225.226-.609.04-1.041a4.217 4.217 0 0 1-.248-.51 3.778 3.778 0 0 1-.206-1.018 3.87 3.87 0 0 1 .198-1.045c.106-.253.135-.303.21-.412zM10.393 7.62c-.802 0-1.454-.633-1.454-1.411 0-.779.652-1.412 1.454-1.412.802 0 1.454.633 1.454 1.412 0 .778-.652 1.411-1.454 1.411zm-.001 9.955c-.388 0-.753-.147-1.028-.414a1.381 1.381 0 0 1-.425-.998v-5.974c0-.778.652-1.411 1.454-1.411.802 0 1.454.633 1.454 1.411v5.974c0 .779-.653 1.412-1.454 1.412h-.001z"/>
</svg>
