<svg xmlns="http://www.w3.org/2000/svg" width="28" height="25" viewBox="0 0 28 25">
    <g fill="none" fill-rule="evenodd">
        <path fill="#FFF" d="M15 18.8c0 .663-.448 1.2-1 1.2s-1-.537-1-1.2c0-.663.448-1.2 1-1.2s1 .537 1 1.2zm-.352-3.552c-.026.427-.311.752-.648.752-.017 0-.034 0-.05-.002-.32-.032-.574-.35-.599-.75l-.35-5.926c-.03-.691.394-1.283.946-1.32A.831.831 0 0 1 14.002 8c.513 0 .947.49.995 1.137.004.062.004.124 0 .185l-.35 5.926z"/>
        <path stroke="#FFF" stroke-linecap="round" stroke-linejoin="round" stroke-width="2" d="M14-.016L27.723 24H.277L14-.016z"/>
    </g>
</svg>
