<svg xmlns="http://www.w3.org/2000/svg" width="24" height="18" viewBox="0 0 24 18">
    <g fill="#363636" fill-rule="evenodd" stroke="#363636">
        <path d="M2.42 4.549a.71.71 0 0 0-.71.708v10.647a.71.71 0 0 0 .71.709H21.58a.71.71 0 0 0 .71-.71V5.258a.71.71 0 0 0-.71-.708h-4.4a.352.352 0 0 1-.274-.13L14.67 1.71H9.328L7.093 4.42a.355.355 0 0 1-.274.13h-4.4zM21.58 17.322H2.42A1.42 1.42 0 0 1 1 15.904V5.256a1.42 1.42 0 0 1 1.42-1.419h4.232L8.887 1.13a.355.355 0 0 1 .274-.128h5.677c.106 0 .206.046.274.128l2.235 2.71h4.234c.782 0 1.42.636 1.42 1.418v10.646c0 .782-.638 1.42-1.42 1.42z"/>
        <path d="M12 5.258a4.618 4.618 0 0 0-4.613 4.613A4.619 4.619 0 0 0 12 14.484a4.618 4.618 0 0 0 4.613-4.613A4.618 4.618 0 0 0 12 5.258m0 9.936a5.33 5.33 0 0 1-5.323-5.323A5.328 5.328 0 0 1 12 4.549a5.327 5.327 0 0 1 5.322 5.322A5.328 5.328 0 0 1 12 15.194M19.807 7.742a.71.71 0 1 1 0-1.42.71.71 0 0 1 0 1.42"/>
        <path d="M12 8.097c-.978 0-1.774.796-1.774 1.774s.796 1.774 1.774 1.774 1.774-.796 1.774-1.774S12.978 8.097 12 8.097m0 4.258A2.486 2.486 0 0 1 9.516 9.87 2.486 2.486 0 0 1 12 7.387a2.486 2.486 0 0 1 2.483 2.484A2.486 2.486 0 0 1 12 12.355"/>
    </g>
</svg>
